{"title":"Fall Out Boy - Centuries (2014.Alternative Rock)","uid":11238850,"size":122699485,"categoryP":"video","categoryS":"music_videos","magnet":"?xt=urn:btih:976fc031999e8009ad91b67c7ebdab083f9d70d9&amp;dn=Fall+Out+Boy+-+Centuries+%282014.Alternative+Rock%29&amp;tr=udp%3A%2F%2Ftracker.openbittorrent.com%3A80&amp;tr=udp%3A%2F%2Fopen.demonii.com%3A1337&amp;tr=udp%3A%2F%2Ftracker.coppersurfer.tk%3A6969&amp;tr=udp%3A%2F%2Fexodus.desync.com%3A6969","seeders":13,"leechers":0,"uploader":"MeRaDil","files":-1,"time":1413645660,"description":"FALL OUT BOY - CENTURIES\n\n &lt;a href=&quot;\nhttp://gifyu.com/images/FallOutBoy.png&quot; rel=&quot;nofollow&quot; target=&quot;_NEW&quot;&gt;\nhttp://gifyu.com/images/FallOutBoy.png&lt;/a&gt;\n\n\nMPEG4 MUSIC VID\n\nGeneral\nComplete name                            : Fall Out Boy - Centuries\nFormat                                   : MPEG-4\nFormat profile                           : Base Media\nCodec ID                                 : isom\nFile size                                : 117 MiB\nDuration                                 : 4mn 31s\nOverall bit rate                         : 3 612 Kbps\nMusicVid name                            : Centuries\nPerformer                                : Fall Out Boy\nGenre                                    : Alternative Rock\nContentType                              : Music Video\nRecorded date                            : 2014\nCopyright                                : Fall Out Boy\nCover                                    : Yes\nRating                                   : ***\nMake                                     : MeRaDil\noday                                     : 17-10-2014 USA\nartist url                               : http://falloutboy.com\nlabl                                     : Island . DCD2\nreleasetime                              : USA - october 17 - 2014\nPart_ID                                  : Centuries\n\nVideo\nID                                       : 1\nFormat                                   : AVC\nFormat/Info                              : Advanced Video Codec\nFormat profile                           : &lt;a class=&quot;__cf_email__&quot; href=&quot;/cdn-cgi/l/email-protection&quot; data-cfemail=&quot;3a72535d527a760e140a&quot;&gt;[email&amp;#160;protected]&lt;/a&gt;&lt;script cf-hash='f9e31' type=&quot;text/javascript&quot;&gt;\n/* &lt;![CDATA[ */!function(){try{var t=&quot;currentScript&quot;in document?document.currentScript:function(){for(var t=document.getElementsByTagName(&quot;script&quot;),e=t.length;e--;)if(t[e].getAttribute(&quot;cf-hash&quot;))return t[e]}();if(t&amp;&amp;t.previousSibling){var e,r,n,i,c=t.previousSibling,a=c.getAttribute(&quot;data-cfemail&quot;);if(a){for(e=&quot;&quot;,r=parseInt(a.substr(0,2),16),n=2;a.length-n;n+=2)i=parseInt(a.substr(n,2),16)^r,e+=String.fromCharCode(i);e=document.createTextNode(e),c.parentNode.replaceChild(e,c)}}}catch(u){}}();/* ]]&gt; */&lt;/script&gt;\nFormat settings, CABAC                   : Yes\nFormat settings, ReFrames                : 2 frames\nCodec ID                                 : avc1\nCodec ID/Info                            : Advanced Video Coding\nDuration                                 : 4mn 31s\nBit rate                                 : 3 349 Kbps\nWidth                                    : 1 920 pixels\nHeight                                   : 1 080 pixels\nDisplay aspect ratio                     : 16:9\nFrame rate mode                          : Variable\nFrame rate                               : 23.976 fps\nMinimum frame rate                       : 23.974 fps\nMaximum frame rate                       : 23.981 fps\nColor space                              : YUV\nChroma subsampling                       : 4:2:0\nBit depth                                : 8 bits\nScan type                                : Progressive\nBits/(Pixel*Frame)                       : 0.067\nStream size                              : 108 MiB (93%)\n\nAudio\nID                                       : 2\nFormat                                   : AAC\nFormat/Info                              : Advanced Audio Codec\nFormat profile                           : LC\nCodec ID                                 : 40\nDuration                                 : 4mn 31s\nBit rate mode                            : Constant\nBit rate                                 : 256 Kbps\nChannel(s)                               : 2 channels\nChannel positions                        : Front: L R\nSampling rate                            : 44.1 KHz\nCompression mode                         : Lossy\nStream size                              : 8.29 MiB (7%)\n &lt;a href=&quot;\nhttps://thepiratebay.se/user/MeRaDil&quot; rel=&quot;nofollow&quot; target=&quot;_NEW&quot;&gt;\nhttps://thepiratebay.se/user/MeRaDil&lt;/a&gt;\n\nFall Out Boy * Alternative Rock * Punk Rock\n\n:)","torrent":{"xt":"urn:btih:976fc031999e8009ad91b67c7ebdab083f9d70d9","amp;dn":"Fall+Out+Boy+-+Centuries+%282014.Alternative+Rock%29","amp;tr":["udp%3A%2F%2Ftracker.openbittorrent.com%3A80","udp%3A%2F%2Fopen.demonii.com%3A1337","udp%3A%2F%2Ftracker.coppersurfer.tk%3A6969","udp%3A%2F%2Fexodus.desync.com%3A6969"],"infoHash":"976fc031999e8009ad91b67c7ebdab083f9d70d9","infoHashBuffer":{"type":"Buffer","data":[151,111,192,49,153,158,128,9,173,145,182,124,126,189,171,8,63,157,112,217]},"announce":[],"urlList":[]}}